HIERARCHY
ROOT Hips
{
	OFFSET -0.089718 121.760773 1.256875
	CHANNELS 6 Xposition Yposition Zposition Xrotation Yrotation Zrotation 
	JOINT Spine
	{
		OFFSET 0.071961 7.257324 -0.789679
		CHANNELS 3 Xrotation Yrotation Zrotation
		JOINT Spine1
		{
			OFFSET 0.000000 12.508743 -0.658066
			CHANNELS 3 Xrotation Yrotation Zrotation
			JOINT Spine1_split
			{
				OFFSET 0.000000 12.508743 -0.658066
				CHANNELS 3 Xrotation Yrotation Zrotation
				JOINT Spine2
				{
					OFFSET 0.000000 12.508743 -0.658066
					CHANNELS 3 Xrotation Yrotation Zrotation
					JOINT Neck
					{
						OFFSET 0.000000 14.033295 7.520357
						CHANNELS 3 Xrotation Yrotation Zrotation
						JOINT Head
						{
							OFFSET 0.000000 8.198502 5.703135
							CHANNELS 3 Xrotation Yrotation Zrotation
							JOINT HeadTop_End
							{
								OFFSET 0.000000 17.760834 13.332673
								CHANNELS 3 Xrotation Yrotation Zrotation
								End Site
								{
									OFFSET 0.000000 0.000000 0.000000
								}
							}
						}
					}
					JOINT LeftShoulder
					{
						OFFSET 6.292447 5.785309 -0.668987
						CHANNELS 3 Xrotation Yrotation Zrotation
						JOINT LeftShoulder_split
						{
							OFFSET 6.292447 5.785309 -0.668987
							CHANNELS 3 Xrotation Yrotation Zrotation
							JOINT LeftArm
							{
								OFFSET 13.906050 -6.096512 1.965051
								CHANNELS 3 Xrotation Yrotation Zrotation
								JOINT LeftForeArm
								{
									OFFSET 34.136707 -0.070145 0.483191
									CHANNELS 3 Xrotation Yrotation Zrotation
									JOINT LeftHand
									{
										OFFSET 40.956070 -0.000046 0.579759
										CHANNELS 3 Xrotation Yrotation Zrotation
										JOINT LeftHandThumb1
										{
											OFFSET 9.870941 -7.205917 9.687083
											CHANNELS 3 Xrotation Yrotation Zrotation
											JOINT LeftHandThumb2
											{
												OFFSET 1.819832 -1.059479 1.085292
												CHANNELS 3 Xrotation Yrotation Zrotation
												JOINT LeftHandThumb3
												{
													OFFSET 2.094803 -1.219498 1.249332
													CHANNELS 3 Xrotation Yrotation Zrotation
													JOINT LeftHandThumb4
													{
														OFFSET 4.803749 -2.796570 2.864868
														CHANNELS 3 Xrotation Yrotation Zrotation
														End Site
														{
															OFFSET 0.000000 0.000000 0.000000
														}
													}
												}
											}
										}
										JOINT LeftHandIndex1
										{
											OFFSET 18.323029 -0.939438 4.853191
											CHANNELS 3 Xrotation Yrotation Zrotation
											JOINT LeftHandIndex2
											{
												OFFSET 4.710793 -0.000031 0.066666
												CHANNELS 3 Xrotation Yrotation Zrotation
												JOINT LeftHandIndex3
												{
													OFFSET 2.876877 -0.226105 0.045824
													CHANNELS 3 Xrotation Yrotation Zrotation
													JOINT LeftHandIndex4
													{
														OFFSET 6.145302 -0.000046 0.087005
														CHANNELS 3 Xrotation Yrotation Zrotation
														End Site
														{
															OFFSET 0.000000 0.000000 0.000000
														}
													}
												}
											}
										}
										JOINT LeftHandMiddle1
										{
											OFFSET 18.011223 0.000015 0.254925
											CHANNELS 3 Xrotation Yrotation Zrotation
											JOINT LeftHandMiddle2
											{
												OFFSET 4.946175 -0.000015 0.070024
												CHANNELS 3 Xrotation Yrotation Zrotation
												JOINT LeftHandMiddle3
												{
													OFFSET 3.341888 0.000015 0.047322
													CHANNELS 3 Xrotation Yrotation Zrotation
													JOINT LeftHandMiddle4
													{
														OFFSET 4.461334 -0.000031 0.063172
														CHANNELS 3 Xrotation Yrotation Zrotation
														End Site
														{
															OFFSET 0.000000 0.000000 0.000000
														}
													}
												}
											}
										}
										JOINT LeftHandRing1
										{
											OFFSET 15.906670 -0.087616 -3.901815
											CHANNELS 3 Xrotation Yrotation Zrotation
											JOINT LeftHandRing2
											{
												OFFSET 3.526680 -0.000031 0.049965
												CHANNELS 3 Xrotation Yrotation Zrotation
												JOINT LeftHandRing3
												{
													OFFSET 2.960831 -0.000015 0.041910
													CHANNELS 3 Xrotation Yrotation Zrotation
													JOINT LeftHandRing4
													{
														OFFSET 4.926727 -0.000031 0.069761
														CHANNELS 3 Xrotation Yrotation Zrotation
														End Site
														{
															OFFSET 0.000000 0.000000 0.000000
														}
													}
												}
											}
										}
										JOINT LeftHandPinky1
										{
											OFFSET 12.886803 -0.806839 -6.620516
											CHANNELS 3 Xrotation Yrotation Zrotation
											JOINT LeftHandPinky2
											{
												OFFSET 3.326813 0.000000 0.047121
												CHANNELS 3 Xrotation Yrotation Zrotation
												JOINT LeftHandPinky3
												{
													OFFSET 3.014618 -0.000031 0.042702
													CHANNELS 3 Xrotation Yrotation Zrotation
													JOINT LeftHandPinky4
													{
														OFFSET 5.847153 0.000031 0.082745
														CHANNELS 3 Xrotation Yrotation Zrotation
														End Site
														{
															OFFSET 0.000000 0.000000 0.000000
														}
													}
												}
											}
										}
									}
								}
							}
						}
					}
					JOINT RightShoulder
					{
						OFFSET -6.292447 5.785309 -0.668987
						CHANNELS 3 Xrotation Yrotation Zrotation
						JOINT RightShoulder_split
						{
							OFFSET -6.292447 5.785309 -0.668987
							CHANNELS 3 Xrotation Yrotation Zrotation
							JOINT RightArm
							{
								OFFSET -13.906046 -6.096527 1.965051
								CHANNELS 3 Xrotation Yrotation Zrotation
								JOINT RightForeArm
								{
									OFFSET -34.136711 -0.070145 0.483195
									CHANNELS 3 Xrotation Yrotation Zrotation
									JOINT RightHand
									{
										OFFSET -40.956062 -0.000031 0.579796
										CHANNELS 3 Xrotation Yrotation Zrotation
										JOINT RightHandThumb1
										{
											OFFSET -9.870895 -7.205978 9.687082
											CHANNELS 3 Xrotation Yrotation Zrotation
											JOINT RightHandThumb2
											{
												OFFSET -1.819832 -1.059479 1.085295
												CHANNELS 3 Xrotation Yrotation Zrotation
												JOINT RightHandThumb3
												{
													OFFSET -2.094826 -1.219513 1.249285
													CHANNELS 3 Xrotation Yrotation Zrotation
													JOINT RightHandThumb4
													{
														OFFSET -4.803757 -2.796585 2.864836
														CHANNELS 3 Xrotation Yrotation Zrotation
														End Site
														{
															OFFSET 0.000000 0.000000 0.000000
														}
													}
												}
											}
										}
										JOINT RightHandIndex1
										{
											OFFSET -18.323013 -0.939499 4.853236
											CHANNELS 3 Xrotation Yrotation Zrotation
											JOINT RightHandIndex2
											{
												OFFSET -4.710800 -0.000031 0.066705
												CHANNELS 3 Xrotation Yrotation Zrotation
												JOINT RightHandIndex3
												{
													OFFSET -2.876869 -0.226089 0.045846
													CHANNELS 3 Xrotation Yrotation Zrotation
													JOINT RightHandIndex4
													{
														OFFSET -6.145317 0.000000 0.087043
														CHANNELS 3 Xrotation Yrotation Zrotation
														End Site
														{
															OFFSET 0.000000 0.000000 0.000000
														}
													}
												}
											}
										}
										JOINT RightHandMiddle1
										{
											OFFSET -18.011230 -0.000031 0.254973
											CHANNELS 3 Xrotation Yrotation Zrotation
											JOINT RightHandMiddle2
											{
												OFFSET -4.946175 0.000000 0.069982
												CHANNELS 3 Xrotation Yrotation Zrotation
												JOINT RightHandMiddle3
												{
													OFFSET -3.341881 0.000000 0.047287
													CHANNELS 3 Xrotation Yrotation Zrotation
													JOINT RightHandMiddle4
													{
														OFFSET -4.461334 -0.000031 0.063116
														CHANNELS 3 Xrotation Yrotation Zrotation
														End Site
														{
															OFFSET 0.000000 0.000000 0.000000
														}
													}
												}
											}
										}
										JOINT RightHandRing1
										{
											OFFSET -15.906685 -0.087631 -3.901773
											CHANNELS 3 Xrotation Yrotation Zrotation
											JOINT RightHandRing2
											{
												OFFSET -3.526680 -0.000046 0.049887
												CHANNELS 3 Xrotation Yrotation Zrotation
												JOINT RightHandRing3
												{
													OFFSET -2.960831 0.000015 0.041926
													CHANNELS 3 Xrotation Yrotation Zrotation
													JOINT RightHandRing4
													{
														OFFSET -4.926727 -0.000061 0.069777
														CHANNELS 3 Xrotation Yrotation Zrotation
														End Site
														{
															OFFSET 0.000000 0.000000 0.000000
														}
													}
												}
											}
										}
										JOINT RightHandPinky1
										{
											OFFSET -12.886818 -0.806839 -6.620485
											CHANNELS 3 Xrotation Yrotation Zrotation
											JOINT RightHandPinky2
											{
												OFFSET -3.326813 -0.000015 0.047130
												CHANNELS 3 Xrotation Yrotation Zrotation
												JOINT RightHandPinky3
												{
													OFFSET -3.014618 0.000000 0.042665
													CHANNELS 3 Xrotation Yrotation Zrotation
													JOINT RightHandPinky4
													{
														OFFSET -5.847153 -0.000031 0.082798
														CHANNELS 3 Xrotation Yrotation Zrotation
														End Site
														{
															OFFSET 0.000000 0.000000 0.000000
														}
													}
												}
											}
										}
									}
								}
							}
						}
					}
				}
			}
		}
	}
	JOINT LeftUpLeg
	{
		OFFSET 13.026871 -6.336296 -1.092769
		CHANNELS 3 Xrotation Yrotation Zrotation
		JOINT LeftLeg
		{
			OFFSET 0.531735 -46.096748 9.782727
			CHANNELS 3 Xrotation Yrotation Zrotation
			JOINT LeftFoot
			{
				OFFSET -0.516061 -53.427502 -12.948194
				CHANNELS 3 Xrotation Yrotation Zrotation
				JOINT LeftToeBase
				{
					OFFSET 0.192221 -14.009666 16.364061
					CHANNELS 3 Xrotation Yrotation Zrotation
					JOINT LeftToe_End
					{
						OFFSET -1.784717 -0.561736 9.474806
						CHANNELS 3 Xrotation Yrotation Zrotation
						End Site
						{
							OFFSET 0.000000 0.000000 0.000000
						}
					}
				}
			}
		}
	}
	JOINT RightUpLeg
	{
		OFFSET -12.882952 -6.336288 -1.092769
		CHANNELS 3 Xrotation Yrotation Zrotation
		JOINT RightLeg
		{
			OFFSET -0.517510 -46.096909 9.782776
			CHANNELS 3 Xrotation Yrotation Zrotation
			JOINT RightFoot
			{
				OFFSET 0.532756 -53.427311 -12.948288
				CHANNELS 3 Xrotation Yrotation Zrotation
				JOINT RightToeBase
				{
					OFFSET -0.192224 -14.009682 16.364050
					CHANNELS 3 Xrotation Yrotation Zrotation
					JOINT RightToe_End
					{
						OFFSET 1.784716 -0.561743 9.474806
						CHANNELS 3 Xrotation Yrotation Zrotation
						End Site
						{
							OFFSET 0.000000 0.000000 0.000000
						}
					}
				}
			}
		}
	}
}
MOTION
Frames: 4
Frame Time: 0.016667
-0.020125 130.817947 2.181921 89.450364 1.022095 3.790993 -1.169500 0.634211 -0.139963 -2.316034 1.317258 -1.535885 0.000000 0.000000 0.000000 -2.316051 1.317257 -1.535886 -9.789818 1.583974 -0.348994 2.502139 5.858925 -13.077551 -0.000002 -0.000001 0.000001 0.301156 -2.573215 -7.748885 0.000000 0.000000 0.000000 5.670787 19.711482 -23.542919 -11.341363 -135.444454 -0.529064 44.847480 7.274815 47.286482 -37.552496 -0.965738 -34.557120 1.733836 3.480946 6.637410 -0.000161 0.000431 0.000688 -0.000000 0.000000 -0.000003 2.881552 4.611903 -56.336920 -6.967709 3.647101 -38.496988 0.059583 -0.103150 -4.492656 0.000000 0.000000 0.000002 0.675040 5.690279 -58.624094 -4.131909 1.357028 -40.293509 -0.000000 0.000727 0.000010 -0.000001 -0.000000 0.000003 0.535310 11.128909 -52.136077 0.492233 -0.642301 -62.467571 -0.000004 0.000929 0.000006 -0.000001 0.000000 0.000001 2.879857 5.404300 -66.701893 1.855566 -6.654001 -37.543374 -0.000002 -0.001198 -0.000006 -0.000002 -0.000001 0.000002 0.363581 1.823640 6.223768 0.000000 0.000000 0.000000 -10.184498 -32.675704 17.993406 0.069095 139.696070 -0.201592 45.016387 -8.525548 -35.393135 -15.550589 3.894133 -17.779438 4.774969 -12.361297 -1.149464 -0.000561 0.000702 -0.000273 -0.000000 0.000000 0.000000 -9.401204 -1.398500 26.604519 -6.873769 -0.533889 45.590229 0.059595 0.103151 4.492664 0.000000 -0.000000 -0.000000 -3.122817 -3.022137 14.985725 -4.716266 -2.044423 60.221641 0.000006 0.000567 -0.000004 0.000001 0.000000 0.000000 -2.847793 -8.627215 10.728923 -1.311961 8.533894 77.553834 -0.000012 -0.000927 -0.001160 0.000002 0.000000 -0.000001 3.755550 -5.556169 22.439726 -0.056569 10.811051 54.415591 -0.000003 0.000217 -0.000012 -0.000001 0.000000 0.000000 -11.949501 2.116063 9.007334 17.949628 -0.042720 -0.654344 18.698734 -0.382166 -15.685389 -5.689312 -0.035730 0.075048 0.000001 0.000000 -0.000000 -25.556749 -55.072136 -28.139737 15.124057 -0.050935 0.436859 11.909152 40.425499 20.542304 2.666026 -0.203801 0.459002 -0.000001 -0.000001 0.000002 
-0.021584 130.833313 2.184331 89.441641 1.014447 3.806584 -1.166593 0.642634 -0.141747 -2.310159 1.333088 -1.525447 0.000000 0.000000 0.000000 -2.310152 1.333087 -1.525446 -9.900971 1.586345 -0.318187 2.520842 5.884363 -13.149397 -0.000002 0.000001 -0.000000 0.299688 -2.565764 -7.762285 0.000000 0.000000 0.000000 5.636143 19.637246 -23.559317 -11.326762 -135.367929 -0.525467 44.847063 7.244989 47.290946 -37.584639 -1.000507 -34.594293 1.745992 3.510367 6.630135 -0.000163 0.000432 0.000685 -0.000003 -0.000000 -0.000004 2.887943 4.627773 -56.258800 -6.963551 3.641696 -38.368260 0.059584 -0.103151 -4.492656 0.000000 -0.000000 -0.000000 0.694515 5.700811 -58.606807 -4.128734 1.357982 -40.202043 0.000000 0.000726 0.000010 -0.000001 0.000000 -0.000001 0.435236 11.146012 -52.004931 0.489274 -0.637705 -62.413292 -0.000004 0.000927 0.000004 -0.000000 -0.000000 -0.000000 2.819226 5.387142 -66.740210 1.853142 -6.648933 -37.496775 -0.000000 -0.001197 -0.000005 -0.000002 -0.000001 0.000001 0.364474 1.899045 6.242323 0.000000 0.000000 0.000000 -10.336632 -32.802902 18.146168 0.068486 139.803345 -0.200978 45.139699 -8.474103 -35.234852 -15.664506 4.106535 -17.660026 4.756992 -12.322229 -1.156946 -0.000561 0.000703 -0.000273 -0.000000 0.000001 -0.000000 -9.577748 -1.097259 28.003315 -6.793171 -0.533885 46.576645 0.059594 0.103151 4.492663 0.000000 0.000000 0.000000 -3.270242 -2.764051 17.764135 -4.816279 -1.953722 62.478903 0.000006 0.000567 -0.000003 0.000000 0.000000 -0.000000 -2.891377 -8.620348 12.658918 -1.314692 8.536446 77.587247 -0.000015 -0.000927 -0.001158 -0.000001 0.000000 -0.000001 3.856349 -5.728559 22.866258 0.010050 10.735553 53.747373 -0.000005 0.000218 -0.000012 0.000001 0.000000 -0.000000 -11.928733 2.154462 9.004489 17.880127 -0.060364 -0.652615 18.740229 -0.436110 -15.916764 -5.684484 -0.035726 0.075039 0.000003 -0.000001 -0.000000 -25.432978 -54.915421 -28.002252 15.093625 -0.047193 0.435928 11.787905 40.302351 20.692318 2.652813 -0.203724 0.459012 0.000000 0.000003 0.000001 
-0.024963 130.852997 2.187378 89.427421 1.015778 3.824316 -1.162456 0.648888 -0.143572 -2.301890 1.344655 -1.517198 0.000000 0.000000 0.000000 -2.301862 1.344653 -1.517198 -10.017189 1.590680 -0.290128 2.538473 5.913937 -13.218376 -0.000000 0.000000 -0.000000 0.300347 -2.517160 -7.759559 0.000000 0.000000 0.000000 5.592678 19.479956 -23.665800 -11.353292 -135.260914 -0.533311 44.892351 7.131725 47.256672 -37.606987 -1.022432 -34.622304 1.756838 3.536539 6.623659 -0.000161 0.000433 0.000686 -0.000001 -0.000002 -0.000004 2.892718 4.641263 -56.190535 -6.959764 3.636714 -38.249544 0.059584 -0.103150 -4.492661 -0.000001 -0.000000 0.000003 0.719467 5.713650 -58.580873 -4.125518 1.358951 -40.110221 -0.000000 0.000727 0.000011 -0.000000 0.000000 0.000001 0.323190 11.163277 -51.868928 0.486307 -0.633099 -62.359060 -0.000003 0.000929 0.000005 -0.000000 0.000000 0.000002 2.768162 5.369757 -66.798219 1.850881 -6.644167 -37.452816 0.000000 -0.001198 -0.000007 -0.000001 0.000000 0.000002 0.364651 1.983890 6.271509 0.000000 0.000000 0.000000 -10.519296 -32.941251 18.332494 0.067916 139.908885 -0.200280 45.286893 -8.392167 -35.056352 -15.786005 4.329711 -17.531692 4.735978 -12.276579 -1.165767 -0.000561 0.000702 -0.000273 -0.000000 0.000000 0.000000 -9.774919 -0.767168 29.503361 -6.703600 -0.531078 47.598950 0.059595 0.103151 4.492663 0.000000 -0.000001 -0.000001 -3.437405 -2.487087 20.703253 -4.926969 -1.861042 64.889475 0.000006 0.000567 -0.000005 0.000000 0.000000 0.000000 -2.943898 -8.607534 14.691764 -1.317206 8.538764 77.617641 -0.000015 -0.000927 -0.001161 -0.000003 0.000000 -0.000001 3.959115 -5.900030 23.278740 0.080040 10.656021 53.050021 -0.000008 0.000218 -0.000012 0.000003 -0.000000 -0.000000 -11.909983 2.176313 8.997477 17.818673 -0.076659 -0.651091 18.774699 -0.491259 -16.119807 -5.691405 -0.035751 0.075046 -0.000001 -0.000000 -0.000000 -25.298809 -54.745298 -27.859037 15.063910 -0.043380 0.434979 11.658551 40.158084 20.848468 2.641727 -0.203666 0.458982 0.000001 0.000001 -0.000002 
-0.033198 130.884293 2.191995 89.397648 1.038039 3.846612 -1.153804 0.650944 -0.145028 -2.284583 1.347991 -1.513990 0.000000 0.000000 0.000000 -2.284576 1.347989 -1.513990 -10.150564 1.599590 -0.263856 2.547895 5.959470 -13.282923 -0.000001 -0.000000 -0.000001 0.300479 -2.491777 -7.763447 0.000000 0.000000 0.000000 5.540860 19.340543 -23.731615 -11.354349 -135.137547 -0.531222 44.926669 7.049779 47.273372 -37.608289 -1.023320 -34.623445 1.766854 3.560749 6.617665 -0.000161 0.000434 0.000687 -0.000003 -0.000000 -0.000002 2.894004 4.647544 -56.160633 -6.956934 3.632757 -38.153625 0.059583 -0.103151 -4.492657 0.000000 -0.000000 -0.000001 0.762908 5.732480 -58.544406 -4.122076 1.359948 -40.011641 -0.000000 0.000728 0.000011 0.000001 0.000000 -0.000002 0.184117 11.180786 -51.727560 0.483113 -0.628170 -62.300847 -0.000004 0.000929 0.000005 -0.000000 0.000001 -0.000001 2.739426 5.350696 -66.911675 1.849277 -6.640774 -37.421582 -0.000002 -0.001197 -0.000006 -0.000000 0.000001 0.000001 0.363562 2.096202 6.326041 0.000000 0.000000 0.000000 -10.775879 -33.123218 18.595806 0.067177 140.020463 -0.199329 45.494903 -8.242727 -34.845808 -15.934531 4.596668 -17.373870 4.702876 -12.204898 -1.179910 -0.000560 0.000702 -0.000273 0.000001 0.000001 0.000000 -10.026208 -0.383039 31.151151 -6.593944 -0.518205 48.523730 0.059594 0.103150 4.492664 -0.000001 -0.000000 0.000000 -3.655871 -2.170572 23.802349 -5.047648 -1.768152 67.426139 0.000005 0.000567 -0.000003 0.000001 -0.000000 -0.000001 -3.031162 -8.575584 16.803457 -1.317402 8.538964 77.620216 -0.000014 -0.000928 -0.001161 -0.000002 -0.000000 0.000001 4.053336 -6.045577 23.670357 0.153137 10.568426 52.295097 -0.000005 0.000217 -0.000012 -0.000001 -0.000000 0.000000 -11.896424 2.161406 8.980787 17.778771 -0.089701 -0.650082 18.797005 -0.538020 -16.247055 -5.714105 -0.035794 0.075096 0.000000 0.000000 0.000000 -25.135981 -54.544043 -27.699854 15.036480 -0.039233 0.433961 11.508263 39.968269 21.020006 2.633879 -0.203595 0.458949 0.000001 -0.000000 0.000000 
